# xmcd
#
# Track frame offsets:
# 150
# 10116
# 18998
# 35064
# 46022
# 59835
# 68120
# 84313
# 90068
# 103260
# 112019
# 121032
#
# Disc length: 1923 seconds
#
#
# Revision: 0
# Processed by: cddbd v1.5.1PL2 Copyright (c) Steve Scherf et al.
# Submitted via: FreeRIP 2.944 
#
DISCID=8f07810c
DTITLE=The Waddington Family - Farmer And The Field
DYEAR=2005
DGENRE=Gospel
TTITLE0=Yes Jesus Loves Me
TTITLE1=That's What Faith Must Be
TTITLE2=Amazing Grace
TTITLE3=Free Again
TTITLE4=Farmer And The Field
TTITLE5=When The Roll Is Called Up Yonder
TTITLE6=Seeing My Father In Me
TTITLE7=Will The Circle Be Unbroken
TTITLE8=The Pain Some People Bear
TTITLE9=Little Barefoot Boy
TTITLE10=Tell The World That Jesus Loves You
TTITLE11=I Saw The Light
EXTD=
EXTT0=
EXTT1=
EXTT2=
EXTT3=
EXTT4=
EXTT5=
EXTT6=
EXTT7=
EXTT8=
EXTT9=
EXTT10=
EXTT11=
PLAYORDER=
